<svg xmlns="http://www.w3.org/2000/svg" viewBox="0 0 64 64">
  <path d="M0 0 H40 C55 0 64 9 64 24 V64 H0 Z" fill="#0f1e35"/>
  <g transform="translate(5 16.6) scale(0.0915)">
    <path d="M96.525 91.7833C104.642 99.9 104.642 113.058 96.525 121.175C88.4083 129.292 75.25 129.292 67.1333 121.175C59.0166 113.058 59.0166 99.9 67.1333 91.7833C75.25 83.6666 88.4083 83.6666 96.525 91.7833ZM141.558 59.6583C149.675 67.775 149.675 80.9333 141.558 89.05C133.442 97.1666 120.283 97.1666 112.167 89.05C104.05 80.9333 104.05 67.775 112.167 59.6583C120.283 51.5417 133.442 51.5417 141.558 59.6583ZM141.558 124.425C149.675 132.55 149.675 145.708 141.558 153.825C133.442 161.942 120.283 161.942 112.167 153.825C104.05 145.708 104.05 132.55 112.167 124.425C120.283 116.317 133.442 116.308 141.558 124.425ZM184.25 93.8833C192.367 102 192.367 115.158 184.25 123.275C176.133 131.392 162.975 131.392 154.858 123.275C146.742 115.158 146.742 102 154.858 93.8833C162.975 85.7666 176.133 85.7666 184.25 93.8833ZM229.967 58.2833C238.083 66.4 238.083 79.5583 229.967 87.675C221.85 95.7916 208.692 95.7916 200.575 87.675C192.458 79.5583 192.458 66.4 200.575 58.2833C208.692 50.1666 221.85 50.1666 229.967 58.2833ZM229.967 121.975C238.083 130.092 238.083 143.25 229.967 151.358C221.85 159.483 208.692 159.483 200.575 151.367C192.458 143.25 192.458 130.083 200.575 121.975C208.692 113.85 221.85 113.85 229.967 121.975ZM271.342 92.0333C279.458 100.15 279.458 113.308 271.342 121.425C263.225 129.542 250.058 129.542 241.942 121.425C233.825 113.308 233.825 100.15 241.942 92.0333C250.058 83.9166 263.225 83.9166 271.342 92.0333ZM271.342 151.908C279.458 160.025 279.458 173.183 271.342 181.3C263.225 189.417 250.058 189.417 241.942 181.3C233.825 173.183 233.825 160.025 241.95 151.908C250.058 143.792 263.225 143.792 271.342 151.908ZM271.342 212.325C279.458 220.442 279.458 233.608 271.342 241.725C263.225 249.833 250.058 249.833 241.95 241.725C233.825 233.608 233.825 220.442 241.942 212.325C250.067 204.208 263.225 204.208 271.342 212.325ZM341.383 133.033L385.333 160.292C391.242 163.958 391.242 172.558 385.333 176.217L341.383 203.475C338.517 205.258 334.975 202.708 335.708 199.417C337.958 189.317 339.158 178.908 339.158 168.258C339.158 157.608 337.958 147.192 335.708 137.1C334.975 133.808 338.517 131.258 341.383 133.033ZM198.167 277.042C190.05 268.925 190.05 255.767 198.167 247.65C206.283 239.533 219.442 239.533 227.567 247.65C235.683 255.767 235.683 268.925 227.558 277.042C219.442 285.167 206.283 285.167 198.167 277.042ZM200.575 212.325C192.458 204.208 192.458 191.05 200.575 182.933C208.692 174.817 221.85 174.817 229.967 182.933C238.083 191.05 238.092 204.208 229.967 212.325C221.85 220.442 208.692 220.442 200.575 212.325ZM154.858 241.725C146.742 233.608 146.742 220.442 154.858 212.325C162.975 204.208 176.133 204.208 184.25 212.325C192.367 220.442 192.367 233.608 184.25 241.725C176.133 249.833 162.975 249.833 154.858 241.725ZM112.167 279.225C104.05 271.108 104.05 257.942 112.167 249.825C120.283 241.708 133.442 241.717 141.558 249.825C149.675 257.942 149.675 271.108 141.558 279.225C133.442 287.342 120.283 287.342 112.167 279.225ZM154.858 181.242C146.742 173.125 146.742 159.967 154.858 151.85C162.975 143.733 176.133 143.733 184.25 151.85C192.367 159.967 192.367 173.125 184.25 181.242C176.133 189.358 162.975 189.358 154.858 181.242ZM112.167 211.725C104.05 203.608 104.05 190.45 112.167 182.333C120.283 174.217 133.442 174.217 141.558 182.333C149.675 190.45 149.675 203.608 141.558 211.725C133.442 219.842 120.283 219.842 112.167 211.725ZM67.1333 245.825C59.0166 237.708 59.0166 224.55 67.1333 216.433C75.25 208.317 88.4083 208.317 96.525 216.433C104.642 224.55 104.642 237.708 96.525 245.825C88.4083 253.942 75.25 253.942 67.1333 245.825ZM67.1333 180.508C59.0166 172.392 59.0166 159.233 67.1333 151.117C75.25 143 88.4083 143 96.525 151.117C104.642 159.233 104.642 172.392 96.525 180.508C88.4083 188.625 75.25 188.625 67.1333 180.508ZM0 168.258C0 261.183 29.4 336.517 139.608 336.517C203.417 336.517 260.2 311.242 296.717 271.942C311.042 256.525 326.942 242.658 344.817 231.575L408.758 191.925C412.016 196.417 417.275 199.383 423.216 199.383C428.508 199.383 433.225 197.017 436.508 193.35C437.883 193.592 439.291 193.742 440.741 193.742H558.266C562.208 197.9 568.058 200.225 574.416 199.1C583.1 197.558 589.133 189.517 589.133 180.7V155.758C589.133 146.85 582.933 138.792 574.133 137.367C567.891 136.358 562.15 138.675 558.266 142.775L440.741 142.767C439.291 142.775 437.883 142.925 436.508 143.167C433.225 139.5 428.508 137.133 423.216 137.133C417.275 137.133 412.016 140.1 408.758 144.592L344.817 104.942C326.942 93.85 311.042 79.9916 296.717 64.575C260.2 25.275 203.417 0 139.608 0C29.4 0 0 75.3333 0 168.258Z" fill="#9ec2e8"/>
  </g>
</svg>
