<svg xmlns="http://www.w3.org/2000/svg" viewBox="89.22 164.44 158.39 75.38">
<defs>
<path id="lounge-glyph-0-0" d="M 32.109375 -8.875 C 27.671875 -10.796875 21.53125 -11.984375 15.015625 -11.984375 C 2.515625 -11.984375 -4.953125 -4.65625 -4.953125 2.65625 C -4.953125 10.203125 0.4375 14.046875 8.140625 14.046875 C 18.640625 14.046875 26.625 6.734375 33.578125 -4.21875 C 37.28125 -2.140625 39.640625 0.96875 39.640625 3.625 C 39.640625 4.515625 39.34375 5.328125 39.34375 6.359375 C 39.34375 7.546875 40.09375 8.578125 41.578125 8.578125 C 42.828125 8.578125 43.859375 7.390625 43.859375 6.0625 C 43.859375 0.8125 40.828125 -3.765625 35.578125 -7.09375 C 35.578125 -7.09375 38.46875 -11.984375 40.828125 -16.640625 C 55.765625 -18.859375 63.90625 -27.296875 63.90625 -34.90625 C 63.90625 -38.609375 61.3125 -40.53125 57.84375 -40.53125 C 50.375 -40.53125 44.671875 -31.953125 38.015625 -19.96875 C 26.484375 -19.96875 18.34375 -25.375 18.34375 -31.359375 C 18.34375 -33.578125 17.96875 -34.765625 16.5 -34.765625 C 14.9375 -34.765625 14.34375 -33.953125 14.34375 -31.359375 C 14.34375 -23.515625 23.890625 -16.640625 36.3125 -16.5 C 34.765625 -13.3125 32.921875 -10.0625 32.109375 -8.875 Z M 14.71875 -8.578125 C 20.71875 -8.578125 26.265625 -7.625 30.25 -5.984375 C 24.328125 2.953125 16.859375 10.5 8.203125 10.5 C 2.140625 10.5 -1.328125 7.390625 -1.328125 2.515625 C -1.328125 -2.296875 4.140625 -8.578125 14.71875 -8.578125 Z M 60.140625 -34.390625 C 60.140625 -29.4375 53.109375 -22.484375 42.828125 -20.484375 C 48.296875 -29.890625 53.109375 -36.984375 57.765625 -36.984375 C 59.09375 -36.984375 60.140625 -36.015625 60.140625 -34.390625 Z M 60.140625 -34.390625 "/>
<path id="lounge-glyph-0-1" d="M 10.953125 -17.96875 C 5.984375 -17.96875 -0.21875 -11.46875 -0.21875 -4.515625 C -0.21875 -1.1875 1.921875 0.515625 4.140625 0.515625 C 9.390625 0.515625 12.71875 -5.171875 14.421875 -9.546875 C 15.15625 -9.546875 18.203125 -9.6875 20.5625 -10.796875 C 23 -11.984375 24.109375 -12.9375 24.109375 -13.828125 C 24.109375 -14.796875 23.59375 -15.15625 22.703125 -15.15625 C 22.265625 -15.15625 21.234375 -14.5 20.5625 -14.203125 C 19.234375 -13.609375 17.96875 -13.09375 16.125 -13.09375 C 15.390625 -13.09375 15.15625 -14.796875 15.15625 -15.3125 C 15.15625 -16.5625 13.828125 -17.96875 10.953125 -17.96875 Z M 11.3125 -10.875 C 11.3125 -9.03125 7.6875 -2.4375 4.953125 -2.4375 C 4.21875 -2.4375 3.40625 -3.25 3.40625 -4.359375 C 3.40625 -8.875 7.46875 -13.984375 10.421875 -14.125 C 10.28125 -13.6875 10.140625 -13.09375 10.140625 -12.65625 C 10.140625 -11.828125 10.875 -10.953125 11.3125 -10.875 Z M 11.3125 -10.875 "/>
<path id="lounge-glyph-0-2" d="M 23.8125 -11.390625 C 21.234375 -7.984375 16.796875 -3.40625 15.15625 -3.40625 C 14.796875 -3.40625 14.421875 -3.765625 14.421875 -4.65625 C 14.421875 -7.546875 15.984375 -11.46875 17.671875 -13.828125 C 18.203125 -14.578125 18.71875 -15.15625 18.71875 -15.828125 C 18.71875 -16.640625 18.203125 -17.375 17.015625 -17.375 C 16.046875 -17.375 15.3125 -16.34375 14.640625 -15.390625 C 13.984375 -14.421875 13.390625 -13.390625 11.3125 -9.6875 C 9.09375 -6.515625 4.359375 -2.890625 3.109375 -2.890625 C 2.65625 -2.890625 2.515625 -3.40625 2.515625 -3.765625 C 2.515625 -4.65625 3.40625 -6.21875 4.296875 -7.765625 C 5.625 -10.140625 7.03125 -13.015625 7.03125 -15.53125 C 7.03125 -16.9375 6.578125 -17.828125 5.25 -17.828125 C 3.765625 -17.828125 3.25 -16.859375 3.25 -15.015625 C 3.25 -13.015625 2.21875 -10.71875 0.890625 -8.578125 C -0.296875 -6.65625 -1.328125 -4.8125 -1.328125 -3.109375 C -1.328125 -1.84375 -0.59375 0.21875 2.078125 0.21875 C 4.953125 0.21875 8.28125 -2.4375 11.546875 -5.625 C 11.546875 -2.21875 11.828125 -0.296875 14.578125 -0.296875 C 17.96875 -0.296875 22.9375 -5.921875 26.40625 -10.140625 C 27.296875 -11.25 27.671875 -11.765625 27.671875 -12.578125 C 27.671875 -13.3125 27.140625 -13.6875 26.484375 -13.6875 C 25.671875 -13.6875 24.703125 -12.5 23.8125 -11.390625 Z M 23.8125 -11.390625 "/>
<path id="lounge-glyph-0-3" d="M 28.703125 -11.390625 C 26.1875 -7.984375 22.109375 -3.546875 20.421875 -3.546875 C 19.015625 -3.546875 18.859375 -5.546875 18.859375 -7.84375 C 18.859375 -10.421875 19.3125 -12.578125 19.3125 -14.796875 C 19.3125 -16.5625 18.046875 -17.609375 16.421875 -17.609375 C 13.171875 -17.609375 7.84375 -11.828125 5.46875 -9.171875 C 5.625 -9.609375 6.578125 -12.875 7.03125 -14.046875 C 7.765625 -16.125 8.0625 -16.796875 8.0625 -17.828125 C 8.0625 -18.859375 7.03125 -19.375 6.515625 -19.375 C 4.59375 -19.375 4.0625 -18.265625 3.03125 -14.9375 C 1.625 -10.578125 -1.25 -2.953125 -1.25 -1.109375 C -1.25 0.375 -0.078125 0.890625 1.25 0.890625 C 2.515625 0.890625 3.1875 -2.359375 3.921875 -3.328125 C 5.625 -5.625 12.65625 -13.46875 14.71875 -13.46875 C 15.15625 -13.46875 15.390625 -13.015625 15.390625 -12.65625 C 15.390625 -10.875 14.9375 -8.65625 14.9375 -7.03125 C 14.9375 -3.765625 15.609375 -0.375 19.3125 -0.375 C 23 -0.375 27.890625 -5.921875 31.28125 -10.140625 C 32.171875 -11.25 32.546875 -11.765625 32.546875 -12.578125 C 32.546875 -13.3125 32.03125 -13.6875 31.359375 -13.6875 C 30.546875 -13.6875 29.59375 -12.5 28.703125 -11.390625 Z M 28.703125 -11.390625 "/>
<path id="lounge-glyph-0-4" d="M 11.609375 -17.53125 C 5.40625 -17.53125 -1.625 -9.25 -1.625 -3.921875 C -1.625 -1.109375 0.140625 0.59375 1.78125 0.59375 C 5.171875 0.59375 10.796875 -3.703125 14.796875 -8.65625 C 14.421875 -5.84375 13.390625 0.375 12.359375 4.953125 C 1.921875 7.765625 -6.953125 17.75 -6.953125 25 C -6.953125 28.84375 -4.4375 30.84375 -1.703125 30.84375 C 5.984375 30.84375 11.171875 21.890625 15.234375 7.390625 C 15.984375 7.328125 16.640625 7.25 16.9375 7.25 C 17.671875 7.25 18.046875 7.390625 18.484375 7.765625 C 18.9375 8.203125 19.609375 8.734375 20.421875 8.734375 C 21.078125 8.734375 22.34375 8.140625 22.34375 6.28125 C 22.34375 4.21875 19.15625 4.140625 16.046875 4.140625 C 17.15625 -1.109375 18.046875 -6.65625 19.234375 -11.390625 C 19.671875 -13.171875 20.5625 -14.34375 21.078125 -15.15625 C 21.59375 -15.984375 21.890625 -16.34375 21.890625 -16.859375 C 21.890625 -17.96875 20.5625 -18.421875 19.609375 -18.421875 C 19.15625 -18.421875 17.828125 -17.15625 16.046875 -14.9375 C 15.609375 -15.53125 13.984375 -17.53125 11.609375 -17.53125 Z M -1.546875 27.734375 C -2.59375 27.734375 -3.40625 26.78125 -3.40625 25.375 C -3.40625 18.71875 4 11.3125 11.46875 8.5 C 8.359375 19.75 2.734375 27.734375 -1.546875 27.734375 Z M 13.53125 -12.28125 C 13.53125 -10.796875 5.546875 -3.109375 3.25 -3.109375 C 2.65625 -3.109375 2.140625 -3.703125 2.140625 -4.4375 C 2.140625 -6.734375 6.875 -14.28125 11.25 -14.28125 C 12.9375 -14.28125 13.53125 -12.71875 13.53125 -12.28125 Z M 13.53125 -12.28125 "/>
<path id="lounge-glyph-0-5" d="M 4.8125 -2.359375 C 3.40625 -2.359375 2.734375 -3.546875 2.734375 -4.4375 C 2.734375 -4.953125 3.03125 -5.46875 4 -5.703125 C 8.875 -6.8125 15.09375 -11.171875 15.09375 -15.015625 C 15.09375 -16.640625 13.390625 -17.828125 11.828125 -17.828125 C 7.984375 -17.828125 2.890625 -14.578125 0.078125 -7.984375 C -0.671875 -7.765625 -1.328125 -6.875 -1.328125 -6.140625 C -1.328125 -5.328125 -0.96875 -5.109375 -0.96875 -4.65625 C -0.96875 -1.40625 1.78125 0.59375 4.21875 0.59375 C 6.578125 0.59375 8.4375 -0.140625 11.609375 -2.59375 C 13.3125 -3.921875 13.765625 -4.59375 13.765625 -5.40625 C 13.765625 -6.140625 13.234375 -6.515625 12.578125 -6.515625 C 11.90625 -6.515625 10.796875 -5.625 9.765625 -4.8125 C 8.359375 -3.703125 6.953125 -2.359375 4.8125 -2.359375 Z M 10.875 -14.5 C 11.3125 -14.5 11.46875 -14.203125 11.46875 -13.765625 C 11.46875 -12.5 6.4375 -8.875 3.765625 -8.359375 C 5.171875 -10.578125 9.09375 -14.5 10.875 -14.5 Z M 10.875 -14.5 "/>
</defs>
<g fill="#ffffff">
<use href="#lounge-glyph-0-0" x="96.1768" y="206.9676"/>
<use href="#lounge-glyph-0-1" x="141.968068" y="206.9676"/>
<use href="#lounge-glyph-0-2" x="160.166213" y="206.9676"/>
<use href="#lounge-glyph-0-3" x="182.137144" y="206.9676"/>
<use href="#lounge-glyph-0-4" x="208.990505" y="206.9676"/>
<use href="#lounge-glyph-0-5" x="230.517579" y="206.9676"/>
</g>
</svg>
