<svg xmlns="http://www.w3.org/2000/svg" viewBox="126.41 164.58 94.48 57.11">
<defs>
<path id="cafe-glyph-0-0" d="M 34.390625 -40.3125 C 21.234375 -40.3125 -0.96875 -19.75 -0.96875 -0.59375 C -0.96875 6.359375 2.953125 10.203125 9.171875 10.203125 C 19.890625 10.203125 32.171875 -2.8125 38.390625 -10.0625 C 39.28125 -11.09375 39.71875 -11.609375 39.71875 -12.421875 C 39.71875 -13.234375 39.203125 -13.609375 38.390625 -13.609375 C 37.5 -13.609375 36.546875 -12.578125 35.578125 -11.25 C 30.84375 -5.03125 19.671875 6.578125 9.25 6.578125 C 5.46875 6.578125 3.109375 3.328125 3.109375 -0.890625 C 3.109375 -17.375 23.75 -36.984375 34.171875 -36.984375 C 35.734375 -36.984375 36.46875 -36.09375 36.46875 -34.84375 C 36.46875 -30.40625 32.171875 -24.703125 28.921875 -23.96875 C 26.625 -23.453125 26.265625 -22.1875 26.265625 -21.296875 C 26.265625 -20.265625 26.921875 -19.75 28.484375 -19.75 C 32.390625 -19.75 40.453125 -28.546875 40.453125 -34.90625 C 40.453125 -38.6875 37.953125 -40.3125 34.390625 -40.3125 Z M 34.390625 -40.3125 "/>
<path id="cafe-glyph-0-1" d="M 15.609375 -16.203125 C 14.875 -17.09375 13.765625 -17.828125 12.578125 -17.828125 C 6.953125 -17.828125 -1.625 -10.421875 -1.625 -2.8125 C -1.625 -0.890625 -0.078125 0.4375 0.890625 0.4375 C 4.21875 0.4375 9.25 -4.59375 11.390625 -6.734375 C 11.3125 -5.703125 11.25 -4.953125 11.25 -4.140625 C 11.25 -2.078125 12.421875 -0.375 14.875 -0.375 C 18.640625 -0.375 24.328125 -5.921875 27.890625 -10.140625 C 28.78125 -11.25 29.140625 -11.765625 29.140625 -12.578125 C 29.140625 -13.3125 28.625 -13.6875 27.953125 -13.6875 C 27.140625 -13.6875 26.1875 -12.5 25.296875 -11.390625 C 22.640625 -8.203125 18.484375 -3.765625 16.046875 -3.765625 C 15.390625 -3.765625 15.09375 -4.59375 15.09375 -5.328125 C 15.09375 -6.359375 15.6875 -7.984375 16.421875 -9.46875 C 17.3125 -11.390625 19.96875 -14.578125 19.96875 -15.828125 C 19.96875 -16.859375 19.15625 -17.671875 17.75 -17.671875 C 16.640625 -17.671875 15.828125 -16.203125 15.609375 -16.203125 Z M 11.609375 -14.34375 C 12.578125 -14.34375 13.234375 -13.6875 13.234375 -12.875 C 13.234375 -11.46875 4.140625 -3.546875 3.03125 -3.546875 C 2.65625 -3.546875 2.359375 -3.765625 2.359375 -4.140625 C 2.359375 -7.546875 8.65625 -14.34375 11.609375 -14.34375 Z M 11.609375 -14.34375 "/>
<path id="cafe-glyph-0-2" d="M 0.890625 -14.578125 C 0.890625 -13.609375 1.40625 -13.3125 3.03125 -13.3125 C 0.375 -6.8125 -2.890625 4 -2.890625 9.609375 C -2.890625 11.984375 -1.84375 12.71875 -0.734375 12.71875 C 0.4375 12.71875 1.03125 11.546875 1.03125 10.796875 C 1.03125 9.765625 0.515625 9.25 0.515625 8.5 C 0.515625 3.46875 3.765625 -6.21875 7.03125 -13.53125 C 10.140625 -13.828125 13.234375 -13.984375 16.265625 -13.984375 C 16.9375 -13.984375 17.671875 -14.578125 17.671875 -15.390625 C 17.671875 -16.125 16.9375 -16.640625 15.984375 -16.640625 L 8.359375 -16.640625 C 10.953125 -22.34375 12.71875 -25.671875 14.640625 -28.84375 C 17.96875 -34.328125 21.59375 -36.984375 23.078125 -36.984375 C 23.515625 -36.984375 23.75 -36.765625 23.75 -36.3125 C 23.75 -35.578125 24.265625 -34.984375 25.15625 -34.984375 C 26.1875 -34.984375 27.296875 -36.09375 27.296875 -37.796875 C 27.296875 -39.203125 25.734375 -40.390625 23.375 -40.390625 C 19.890625 -40.390625 14.421875 -35.65625 10.953125 -29.59375 C 7.84375 -24.046875 6.515625 -21 4.59375 -16.640625 L 2.890625 -16.640625 C 1.546875 -16.640625 0.890625 -15.90625 0.890625 -14.578125 Z M 0.890625 -14.578125 "/>
<path id="cafe-glyph-0-3" d="M 18.640625 -11.390625 C 15.984375 -8.140625 11.015625 -2.4375 4.8125 -2.4375 C 3.40625 -2.4375 2.734375 -3.84375 2.734375 -4.4375 C 2.734375 -4.953125 3.03125 -5.46875 4 -5.703125 C 8.875 -6.8125 15.09375 -11.171875 15.09375 -15.015625 C 15.09375 -16.640625 13.390625 -17.828125 11.828125 -17.828125 C 7.984375 -17.828125 2.890625 -14.578125 0.078125 -7.984375 C -0.671875 -7.765625 -1.328125 -6.875 -1.328125 -6.140625 C -1.328125 -5.328125 -0.96875 -5.109375 -0.96875 -4.65625 C -0.96875 -1.40625 1.109375 0.515625 3.546875 0.515625 C 11.765625 0.515625 17.75 -5.84375 21.234375 -10.140625 C 22.109375 -11.25 22.484375 -11.765625 22.484375 -12.578125 C 22.484375 -13.3125 21.96875 -13.6875 21.296875 -13.6875 C 20.484375 -13.6875 19.53125 -12.5 18.640625 -11.390625 Z M 10.875 -14.5 C 11.3125 -14.5 11.46875 -14.203125 11.46875 -13.765625 C 11.46875 -12.5 6.4375 -8.875 3.765625 -8.359375 C 5.171875 -10.578125 9.09375 -14.5 10.875 -14.5 Z M 14.640625 -27.296875 C 14.046875 -27.296875 13.609375 -27.078125 13.234375 -26.40625 C 12.0625 -24.328125 10.203125 -22.046875 9.09375 -21.671875 C 8.4375 -21.453125 8.0625 -21 8.0625 -20.640625 C 8.0625 -20.1875 8.359375 -19.609375 9.25 -19.609375 C 10.796875 -19.609375 13.53125 -20.9375 15.390625 -22.78125 C 16.34375 -23.75 16.5625 -24.046875 16.5625 -24.921875 C 16.5625 -25.890625 15.453125 -27.296875 14.640625 -27.296875 Z M 14.640625 -27.296875 "/>
</defs>
<g fill="#ffffff">
<use href="#cafe-glyph-0-0" x="129.3789" y="206.9676"/>
<use href="#cafe-glyph-0-1" x="163.26" y="206.9676"/>
<use href="#cafe-glyph-0-2" x="186.710455" y="206.9676"/>
<use href="#cafe-glyph-0-3" x="196.401337" y="206.9676"/>
</g>
</svg>
